<?xml version="1.0" encoding="UTF-8"?> <!-- Generator: Adobe Illustrator 25.2.1, SVG Export Plug-In . SVG Version: 6.00 Build 0) --> <svg xmlns="http://www.w3.org/2000/svg" xmlns:xlink="http://www.w3.org/1999/xlink" version="1.1" id="Calque_1" x="0px" y="0px" viewBox="0 0 225 225" style="enable-background:new 0 0 225 225;" xml:space="preserve"> <style type="text/css"> .st0{fill:#FFFFFF;} </style> <g> <path class="st0" d="M0.6,165.6c44.4,0,88.9,0.1,133.3,0c4.1,0,6.2,1.4,8.1,4.8c7.4,13.3,15.1,26.4,23.2,40.4c-2.6,0-4.3,0-6.1,0 c-38.6,0-77.3-0.2-115.9,0.1c-11.5,0.1-19.5-4.3-24.9-14.5c-5.4-10.2-11.7-19.9-17.6-29.8C0.6,166.3,0.6,166,0.6,165.6z"></path> <path class="st0" d="M88.8,14.2c14.7,0,28.7-0.5,42.5,0.2c7.6,0.3,12.8,5.7,16.5,12.2c18.9,32.9,37.8,65.7,56.7,98.6 c5.4,9.3,10.7,18.7,16.1,28c5,8.5,5.3,16.8,0.1,25.3c-6.3,10.5-12.2,21.1-18.6,32.1C164.3,145.1,126.8,80,88.8,14.2z"></path> <path class="st0" d="M120.6,133.6c-34.1,0-67.3,0-101.3,0c17-29.4,33.6-58.3,50.7-87.7C86.8,75.1,103.4,103.9,120.6,133.6z"></path> </g> </svg> 