<?xml version="1.0" encoding="UTF-8"?> <!-- Generator: Adobe Illustrator 25.2.1, SVG Export Plug-In . SVG Version: 6.00 Build 0) --> <svg xmlns="http://www.w3.org/2000/svg" xmlns:xlink="http://www.w3.org/1999/xlink" version="1.1" id="Calque_1" x="0px" y="0px" viewBox="0 0 512 512" style="enable-background:new 0 0 512 512;" xml:space="preserve"> <style type="text/css"> .st0{fill:#FFFFFF;} </style> <image style="overflow:visible;" width="400" height="400" transform="matrix(0.75 0 0 0.75 8236.5264 8681.3389)"> </image> <image style="overflow:visible;" width="442" height="281" transform="matrix(0.75 0 0 0.75 8236.5264 8681.3389)"> </image> <g> <path class="st0" d="M76.9,237.8c0-53.1-0.3-106.1,0.2-159.2c0.2-20.4,14.6-38.9,35-43.6c2-0.5,4.2-0.6,6.3-0.6 c92.1,0,184.1-0.2,276.2,0.1c13.9,0,24.1,8.2,31.9,19.3c6.4,9.1,8.4,19.5,8.4,30.5c0,92.4,0,184.8,0,277.2c0,12.2-0.1,24.5,0,36.7 c0,3.7-1,5.7-4.7,7.2c-14.9,6-29.5,12.6-44.3,18.8c-18.2,7.7-36.6,15.1-54.8,22.8c-14.8,6.2-29.5,12.6-44.3,18.8 c-9.6,4.1-19.2,8.2-28.9,12.1c-1.2,0.5-3,0.4-4.2-0.1c-20.3-8.5-40.5-17.2-60.8-25.7c-13.6-5.7-27.3-11.3-41-17.1 c-12.1-5.1-24.2-10.4-36.3-15.5c-11.6-4.9-23.1-9.8-34.8-14.4c-3.2-1.3-3.9-3.1-3.9-6.2C76.9,345.2,76.9,291.5,76.9,237.8z M192.3,193c0,16.9,0,33.7,0,50.6c0,24.3,0,48.7,0,73c0,4.7,0.2,4.8,4.8,4.8c6,0,12,0,18,0c5.1,0,5.3-0.2,5.3-5.2 c0-34.5,0-68.9-0.1-103.4c0-3.7,1.2-4.8,4.7-4.8c7.1,0.1,14.3,0.3,21.4-0.2c12.3-0.8,23.6-9.3,23.8-23.6c0.3-26.3,0.3-52.7,0.3-79 c0-6,0.1-12-0.6-17.9c-1.5-12.1-9.9-22.3-23.7-22.3c-16.2,0-32.5,0-48.7,0c-5.2,0-5.2,0-5.2,5.2C192.3,111.1,192.3,152,192.3,193z M337.1,192.5C337.1,192.5,337.1,192.5,337.1,192.5c0,33-0.2,65.9,0.2,98.9c0.1,5.8,2,12.1,4.7,17.4c4.2,8.6,12.5,11.9,21.7,12.3 c8.7,0.3,17.5,0.2,26.2,0.1c5.6-0.1,10.8-1.8,15.4-5c7.9-5.5,10.2-13.6,10.3-22.5c0.1-12.4,0-24.7,0.1-37.1c0-3-1.1-4-4-4 c-6.4,0.1-12.7,0-19.1,0.1c-4.8,0-5,0.3-5,5.1c0,9.7,0,19.5,0.1,29.2c0,3.3-1.1,4.8-4.6,4.6c-4-0.3-8-0.1-12,0 c-5.1,0.1-5.3-0.1-5.3-5.1c0-59.3,0-118.6,0-177.9c0-3.4,0-6.7,0-10.1c0-2.6,1-3.9,3.8-3.8c4.4,0.2,8.7,0.1,13.1,0.1 c4.9,0,5,0.1,5,5c0,10.1-0.1,20.2-0.1,30.3c0,2.4,0.2,4.6,3.5,4.5c6.9-0.1,13.7-0.1,20.6-0.1c2.9,0,4.1-1.4,4.1-4.1 c0-3.1,0-6.2-0.1-9.4c-0.4-12,0.2-24-1.4-35.8c-1.6-12.1-9.8-19.6-22.3-20.3c-9.2-0.5-18.5-0.8-27.7,0c-17.5,1.5-27,11.2-27.2,28.2 C336.8,126.4,337.1,159.5,337.1,192.5z M94.8,192.2C94.8,192.2,94.8,192.2,94.8,192.2c0,32.8-0.1,65.6,0.1,98.5 c0,4.8,0.9,9.7,2.1,14.3c2.5,9.2,12.1,16.5,21.6,16.6c17.1,0.2,34.2,0.1,51.3,0.2c3.2,0,4.5-1.2,4.4-4.4c-0.1-7.2,0-14.5,0-21.7 c0-4.9-0.2-5.1-5-5.1c-13.5,0-27-0.1-40.5,0.1c-3.1,0-4.5-0.7-4.4-4.2c0.1-24.3,0.1-48.7,0-73c0-3.4,1.3-4.3,4.4-4.2 c9.4,0.1,18.7,0,28.1,0c4.5,0,5.3-0.7,5.3-5.2c0-7.5-0.1-15,0-22.5c0.1-3.5-1.1-4.9-4.8-4.9c-9.4,0.2-18.7,0.1-28.1,0.1 c-4.8,0-4.9-0.1-4.9-4.7c0-24,0-47.9,0-71.9c0-4.7,0.2-4.9,4.8-4.9c13.6,0,27.2-0.1,40.8,0.1c3,0,4.3-1,4.2-4.1 c-0.1-7.7-0.1-15.5,0-23.2c0-2.8-1.1-4.1-4-4.1c-15.1,0-30.2-0.2-45.3,0.1c-5.8,0.1-11.7,0.9-16.9,4c-9.3,5.5-13.5,13.7-13.4,24.5 C94.8,125.8,94.8,159,94.8,192.2z M319,192.9c0-41.2,0-82.4,0-123.6c0-4.9-0.2-5.1-5-5.1c-6,0-12,0-18,0c-7.3,0-7.4,0.2-7.4,7.3 c0,80,0,160.1,0,240.1c0,2.2,0,4.5,0,6.7c0.1,2.3,1.2,3.3,3.6,3.2c7.2-0.1,14.5-0.1,21.7-0.1c5.1,0,5.1,0,5.1-5.2 C319,275.1,319,234,319,192.9z M328.5,420.1c-0.1-0.5-0.2-1-0.3-1.5c-1.6-0.2-3.1-0.6-4.7-0.6c-44.9,0-89.9,0-134.8,0 c-1,0-2,0-3,0.2c-0.6,0.2-1.4,0.8-1.5,1.3c-0.1,0.5,0.6,1.2,1.1,1.6c0.7,0.5,1.5,0.9,2.3,1.2c7.7,3.2,15.4,6.3,23.1,9.5 c13.9,5.8,27.7,11.7,41.7,17.3c2,0.8,5,0.8,7,0c20.1-8.1,40-16.5,60-24.9C322.5,423.1,325.5,421.5,328.5,420.1z M129.5,392 c5.4,0,10.7,0.1,16.1,0c5.9-0.1,8.9-1.9,9.8-7.5c0.9-5.7,0.5-11.7,0.3-17.5c0-0.7-2.1-2-3.3-2.1c-6.7-0.2-13.5,0-20.2-0.1 c-2.9,0-3.6,1.5-3.5,4c0,2.6,0.7,4.3,3.8,4.2c3.2-0.2,6.5-0.1,9.7,0c4.7,0.1,2.8,3.8,3.1,6.2c0.4,2.4-0.6,3.7-3.3,3.7 c-8.2-0.1-16.5-0.1-24.7,0c-2.4,0-3.4-1-3.3-3.3c0.1-7.1,0.1-14.2,0-21.3c0-2.8,1.1-3.8,3.8-3.8c8.1,0.1,16.2,0,24.3,0 c1.8,0,3.2,0.3,3.4,2.5c0.3,2.2,1.7,2.5,3.6,2c1.2-0.4,2.4-0.9,3.6-1c3.3-0.5,3.6-2.6,2.9-5.2c-1.5-5.3-4-7.3-10.1-7.4 c-10.6-0.2-21.2-0.3-31.8,0c-7.6,0.3-10,3.7-10,9.5c-0.1,9.5-0.2,19,0.1,28.4c0.2,6.3,3.3,8.9,9.6,8.9 C118.7,392,124.1,392,129.5,392z M383.2,391.9c4.9,0,9.7,0.1,14.6,0c7-0.2,10-3.2,10.1-10.1c0-2.4,0-4.7,0-7.1 c0-9-2.7-11.8-11.8-11.9c-7.6-0.1-15.2-0.1-22.8,0c-3.3,0.1-3.6-1.8-3.7-4.3c0-2.6,0.2-4.8,3.6-4.8c7.1,0,14.2-0.1,21.3,0.1 c1.2,0,2.4,1.6,3.4,2.5c0.7,0.6,1.3,2.1,2,2.1c6.1,0.2,9.1-4,6-9.1c-1.2-2.1-4.5-4-6.9-4.2c-10-0.5-20-0.4-29.9-0.2 c-5.4,0.1-8.4,3.6-8.5,8.9c-0.1,3,0,6,0,9c0,6.7,2.8,9.4,9.6,9.5c7.9,0,15.7,0.2,23.6,0c3.6-0.1,5.1,1.3,4.6,4.8 c-0.1,0.7-0.1,1.5,0,2.2c0.1,2.3-0.9,3.4-3.3,3.4c-8-0.1-16,0-24-0.1c-1,0-2.6-1.2-2.8-2c-0.4-2.1-1-3.7-3.2-3 c-2.4,0.8-6.1,0.2-6.5,4.3c-0.4,5.7,3,9.7,9.2,9.9C373,392.1,378.1,391.9,383.2,391.9z M242,362.9c0.3-0.1,0.7-0.2,1-0.4 c0.6,0.6,1.2,1.1,1.6,1.7c4.8,6.7,9.4,13.4,14.2,20c2.1,2.9,3.4,2.8,5.5,0c2.7-3.7,5.3-7.5,8-11.3c2.4-3.4,4.8-6.7,7.2-10 c1,1.4,1.1,2.5,1.1,3.5c0,7.4,0,14.7,0,22.1c0,3.6,2.5,3.4,5,3.4c2.4,0,5,0.3,5-3.3c0-13.5,0-26.9,0-40.4c0-2.2-1.1-3.1-3.2-3.2 c-2.9-0.1-5.2,0.4-7.1,3.1c-5,7.3-10.4,14.3-15.5,21.5c-1.8,2.5-3.3,2.8-5-0.1c-1-1.7-2.3-3.2-3.5-4.8c-4.2-5.7-8.4-11.4-12.6-17.1 c-2.1-3-5.2-2.9-8.1-2.2c-2.9,0.7-2.3,3.5-2.3,5.6c0,12.4,0,24.7,0,37.1c0,2.8,1.1,4.1,4,4.1c2.9-0.1,5-0.6,4.7-4.1 c-0.1-1.7,0-3.5,0-5.2C242,376,242,369.4,242,362.9z M303.2,368.2c0,6.6,0,13.2,0,19.8c0,2.4,0.8,3.9,3.3,3.9 c12.7,0,25.5,0.1,38.2,0c4.7,0,3.2-3.9,3.5-6.4c0.4-2.9-1.7-2.8-3.7-2.8c-7.9,0-15.7,0-23.6,0c-7.3,0-7.2,0-6.9-7.5 c0.1-2.6,1.1-3.6,3.6-3.5c4,0.1,8-0.1,12,0.1c2.9,0.1,4.4-0.8,4.4-4c0-3.2-1-4.9-4.6-4.7c-3.6,0.2-7.3-0.1-10.9,0.1 c-3.2,0.2-4.9-0.5-4.7-4.2c0.2-5,0.2-5.3,4.9-5.3c8.4,0,16.7-0.1,25.1,0.1c3.1,0,4.5-1,4.6-4.3c0-3.2-1.2-4.5-4.4-4.5 c-12.2,0.1-24.5,0.1-36.7,0c-3,0-4.3,1.1-4.2,4.2C303.3,355.4,303.2,361.8,303.2,368.2z M222.9,390.6c-0.3-0.8-0.5-1.6-0.9-2.3 c-7.2-13.2-14.4-26.4-21.4-39.6c-1.6-3-3.8-3.8-6.9-3.8c-3.2,0-5.4,0.8-6.9,3.9c-5.3,10.1-10.8,20.2-16.1,30.3 c-2.1,3.9-4.1,7.8-6.2,11.7c5.4,2.8,9.8,1.6,12.2-3.1c0.5-1,1.3-1.9,1.7-2.9c1-2.5,2.8-3.2,5.3-3.1c5.9,0.1,11.7,0.3,17.6,0 c4.1-0.2,6.4,1.2,7.9,5.1C211.2,392.3,217.2,393.9,222.9,390.6z"></path> <path class="st0" d="M220.5,136.7c0-12.4,0.1-24.7-0.1-37.1c0-3.4,1-4.8,4.5-4.6c4.1,0.2,8.2,0,12.4,0c4.7,0,4.9,0.2,4.9,4.8 c0,21.3,0,42.7,0,64c0,3.5,0,7,0,10.5c0.1,2.5-1.1,3.6-3.6,3.6c-4.7-0.1-9.5-0.1-14.2,0c-2.9,0.1-3.9-1-3.9-3.9 C220.5,161.6,220.5,149.2,220.5,136.7z"></path> <path class="st0" d="M194,356.8c2.1,4.2,4.3,8.4,6.3,12.6c0.9,1.8,1.1,3.6-1.7,3.6c-4.5,0.1-8.9,0-14.5,0c3.1-6,5.8-11.3,8.6-16.6 C193.1,356.6,193.5,356.7,194,356.8z"></path> </g> </svg> 