<?xml version="1.0" encoding="UTF-8"?> <!-- Generator: Adobe Illustrator 25.2.1, SVG Export Plug-In . SVG Version: 6.00 Build 0) --> <svg xmlns="http://www.w3.org/2000/svg" xmlns:xlink="http://www.w3.org/1999/xlink" version="1.1" id="Calque_1" x="0px" y="0px" viewBox="0 0 225 225" style="enable-background:new 0 0 225 225;" xml:space="preserve"> <style type="text/css"> .st0{fill:#FFFFFF;} </style> <g> <path class="st0" d="M129.2,218c0-24.7,0-49.2,0-74c4.6,0,9,0,13.4,0c3.1,0,6.3,0.1,9.4-0.1c0.7,0,1.8-0.6,1.9-1.1 c1.5-9.7,3-19.4,4.4-29.1c0-0.1,0-0.1-0.1-0.5c-9.6,0-19.2,0-29,0c0-1-0.1-1.8-0.1-2.6c0.1-6.8-0.2-13.6,0.3-20.3 c0.6-7.9,6-12.9,13.9-13.5c4.4-0.3,8.9-0.2,13.3-0.2c1,0,1.9,0,3.1,0c0-1.1,0.1-1.9,0.1-2.8c0-6.8-0.1-13.5,0.1-20.3 c0-2.3-0.4-3.3-3-3.6c-9-0.9-17.9-2.1-27-1.2c-18.1,1.7-31.3,14-33.2,32.1c-1,9.5-0.6,19.1-0.8,28.7c0,1.1,0,2.2,0,3.6 c-9.1,0-17.9,0-26.8,0c0,10.3,0,20.3,0,30.6c8.8,0,17.7,0,26.7,0c0,24.9,0,49.5,0,74.1c-44.6-6-89.7-46.6-89.5-105.4 C6.5,55,52.5,8.2,110.4,7c57.7-1.2,103.8,43.2,108,97.8C222.9,163.8,179.7,210.6,129.2,218z"></path> </g> </svg> 