<?xml version="1.0" encoding="UTF-8"?> <!-- Generator: Adobe Illustrator 25.2.1, SVG Export Plug-In . SVG Version: 6.00 Build 0) --> <svg xmlns="http://www.w3.org/2000/svg" xmlns:xlink="http://www.w3.org/1999/xlink" version="1.1" id="Calque_1" x="0px" y="0px" viewBox="0 0 225 225" style="enable-background:new 0 0 225 225;" xml:space="preserve"> <style type="text/css"> .st0{fill:#FFFFFF;} </style> <g> <path class="st0" d="M74.9,7c24.9,0,49.8,0,74.7,0c3,0.3,6,0.6,9,0.7c33,1.6,54.3,21.3,58.1,54.1c0.5,4.5,0.8,9.1,1.2,13.6 c0,24.9,0,49.8,0,74.7c-0.2,2.9-0.5,5.8-0.7,8.7c-1,14.9-4.8,28.7-15.1,40c-11.6,12.8-26.7,18.4-43.4,18.7c-31,0.5-62,0.5-93,0 c-14.8-0.2-28.4-4.8-39.7-15C13.3,191,7.7,175.9,7.4,159.2c-0.5-31-0.5-62,0-93C7.6,52,11.9,38.7,21.4,27.6 C31.5,16,44.6,10.3,59.5,8.4C64.6,7.8,69.7,7.5,74.9,7z M199.3,113c-0.1,0-0.3,0-0.4,0c0-1.6,0-3.3,0-4.9 c-0.4-15.4-0.2-30.8-1.5-46.1c-1.6-18.8-13-30.9-31.7-33.9c-10.4-1.6-21-1.8-31.6-1.9c-22.1-0.1-44.2,0-66.2,0.7 c-23.8,0.8-38.1,12.8-40.8,34.3c-1.2,9.9-1.5,19.9-1.5,29.9c0,22.1,0,44.2,0.7,66.2c0.8,25,13.4,39.7,38,40.8 c32,1.5,64.1,1.4,96.1,0c23.7-1.1,35.2-13.8,37.4-37.6C199.2,144.8,198.9,128.8,199.3,113z"></path> <path class="st0" d="M112.2,167.1c-30.2,0-54.3-24.3-54.3-54.5c0-30,24.3-54.1,54.3-54.1c30.2,0,54.3,24.3,54.3,54.5 C166.5,142.9,142.2,167.1,112.2,167.1z M147.5,112.8c0-19.3-15.8-35.2-35.1-35.3C93,77.5,77.1,93.2,77,112.5 C76.9,132,92.8,148,112.3,148C131.6,148,147.4,132.2,147.5,112.8z"></path> <path class="st0" d="M168.9,43.6c7.1,0.1,12.6,5.8,12.5,12.9c-0.1,6.9-5.7,12.5-12.7,12.5c-7,0-12.8-5.8-12.7-12.8 C156,49.2,161.7,43.6,168.9,43.6z"></path> </g> </svg> 