<?xml version="1.0" encoding="UTF-8"?> <!-- Generator: Adobe Illustrator 25.2.1, SVG Export Plug-In . SVG Version: 6.00 Build 0) --> <svg xmlns="http://www.w3.org/2000/svg" xmlns:xlink="http://www.w3.org/1999/xlink" version="1.1" id="Calque_1" x="0px" y="0px" viewBox="0 0 512 512" style="enable-background:new 0 0 512 512;" xml:space="preserve"> <style type="text/css"> .st0{fill:#FFFFFF;} </style> <image style="overflow:visible;" width="400" height="400" transform="matrix(0.75 0 0 0.75 8236.5264 8681.3389)"> </image> <image style="overflow:visible;" width="442" height="281" transform="matrix(0.75 0 0 0.75 8236.5264 8681.3389)"> </image> <g> <path class="st0" d="M208.7,185.7c3.6-1.1,7.2-2.1,11.6-3.4c-5.3-4.6-9.9-8.6-14.5-12.7c0.3-0.2,0.5-0.4,0.8-0.7 c4.7,1.9,9.2,4.3,14,5.6c7.9,2.2,15.9,3.6,24.7,5.6c-0.2-3.9,0-7.5-0.6-10.8c-0.8-4.1-3-6.4-8-6.9c-4.6-0.4-9-2.9-13.5-4.5 c0.2-0.5,0.4-0.9,0.5-1.4c4.4,0.6,8.9,1.2,14.9,2c-3.2-5.2-5.5-9-8.1-13.3c10.5,4.2,16.6,12.1,22.5,21.7c5.5-14,9.6-28.1,23-37.5 c-3.2,5.9-5.8,10.8-9,16.8c5.9,0,10.3,0,14.7,0c0.1,0.7,0.3,1.4,0.4,2.1c-3.9,1.1-7.7,2.6-11.6,3.1c-3.2,0.4-5.1,1.1-5.6,4.7 c-1.2,10.1-2.9,20.1-4.1,30.2c-0.5,4.4,1.2,5.6,5.6,3.5c5-2.3,10.6-3.3,15.6-5.6c5.1-2.3,9.8-5.5,15.9-9.1 c-4.2,5.3-7.8,9.9-11.4,14.5c4.2,3.7,10,3.8,16.9,0c6.9-3.7,12.8-2.6,16.2,3.7c1.3,2.5,1.8,6.3,1,8.9 c-5.2,16.4-14.4,29.7-30.4,37.4c-7.5,3.6-15,4.1-22.7,1.2c-4-1.5-7.2-3.8-7-8.9c0.1-4.2,1.7-6.6,6.1-7.1c2.7-0.3,5.6-1.1,7.9-2.5 c2.2-1.3,5-3.4,5.5-5.6c0.4-1.9-2.2-4.4-3.7-7.2c-2.1,3.3-3.1,6.1-5.1,7.5c-2.1,1.5-5.2,1.6-7.9,2.3c-9.1,2.2-18.2,1.7-26.9-1.5 c-2.5-0.9-4.1-4.1-7-7c-0.9,1-3.9,3-3.6,4.3c0.6,2.5,2.6,5.2,4.8,6.7c2.3,1.6,5.5,2.1,8.3,2.9c5.8,1.6,6.8,3.2,5.6,9.2 c-0.3,1.6-0.7,3.2-0.9,4.9c0,0.3,0.4,0.6,1,1.6c2.6-1.8,5.3-3.6,6.6-4.5c3.8,3.1,7.3,5.7,10.6,8.7c2.7,2.5,1,4.2-1.5,5.6 c-5.9,3.2-15.2,1-19.9-4.2c-1.3-1.4-3.6-2.9-5.4-2.8c-17,1.1-29.3-7-39.1-19.6c-7.9-10.2-12.8-21.8-13.6-34.8 c-0.2-2.9,0.8-7.7,2.6-8.5c2.3-1,6.3,0.6,9.2,1.9c6.6,3.2,12.6,7.9,19.4,10.1c7.1,2.3,14.9,2.4,22.4,3.3c1.2,0.1,3.2-0.8,3.7-1.7 c0.4-0.9-0.6-2.7-1.5-3.7c-4.2-4.9-10.9-6.3-17.3-4.6c-3.8,1.1-8,1.1-12,1.6C208.8,186.9,208.8,186.3,208.7,185.7z M270.5,200.7 c7.1,3.7,22.9-0.2,26.9-6.9C288.1,196,277.6,189.8,270.5,200.7z M240.4,207.1c2.1,0.5,3.5,1.4,4.1,1c4.9-2.8,9.1-2,13.1,1.8 c2.8,2.7,4.6,0.9,5.9-0.8c-2.9-2.1-5.1-3.9-7.6-5.2c-1.9-1-4.4-2.4-6.2-1.9C246.8,202.7,244.3,204.8,240.4,207.1z"></path> <path class="st0" d="M57.2,246.6c2.2,3,3.2,4.7,4.5,6.2c5.7,6.9,8.2,14.9,8.2,23.7c0.1,19.7,0,39.4,0,59.1c0,1.1,0.3,2.5-0.1,3.3 c-1.1,1.9-2.6,3.5-3.9,5.2c-1-1.8-2.8-3.5-2.9-5.3c-0.2-20.5-0.1-40.9-0.2-61.4c-0.1-16-10.3-28-25.5-30.6 c-7.6-1.3-8.7-0.3-8.8,7.5c0,26.8,0,53.6-0.1,80.4c0,3.4,1.4,9-3.7,9.1c-5.7,0.1-4-5.7-4-9.3c-0.1-29.2-0.1-58.4-0.1-87.6 c0-7.3,0.3-7.6,7.5-7.6c15.2,0,30.5,0.3,45.7-0.1c21.5-0.6,38.4,17.5,37.6,37.6c-0.8,19.5-0.2,39.1-0.2,58.6c0,1.7,0.3,3.5-0.2,5 c-0.4,1.4-1.8,2.5-2.7,3.7c-1.3-1.1-3-2-3.6-3.4c-0.7-1.6-0.5-3.6-0.5-5.5c-0.1-19.3-0.1-38.7-0.1-58 c-0.1-18.1-12.3-30.4-30.5-30.6C68.7,246.6,63.6,246.6,57.2,246.6z"></path> <path class="st0" d="M181.5,291.5c0-15.1,0.1-30.1-0.1-45.2c-0.1-5.4,1.8-7.1,7.2-6.9c25.1,1.1,47.3,22.6,49.1,47.2 c2.3,31.2-18.3,52.4-42.4,56.9c-13.1,2.5-13.7,1.7-13.8-11.4C181.5,318.6,181.5,305,181.5,291.5z M190.4,247.2 c-0.6,1.3-0.9,1.7-0.9,2c-0.1,27.7-0.1,55.3-0.2,83c0,4.4,2.6,4.8,6,4c11.1-2.7,20.3-8.4,26.8-17.8c11.9-17.1,11.5-38.6-1.4-55 C213.2,253.9,203,248.1,190.4,247.2z"></path> <path class="st0" d="M434.6,291.1c0-15.1,0.1-30.1-0.1-45.2c-0.1-4.7,1.4-6.5,6.4-6.6c15.8-0.4,29.1,4,37.4,18.4 c7.3,12.7,6.5,25.7-0.9,38.1c-1.9,3.2-2.3,5.5-0.2,8.5c7.8,11.3,5.8,24.2,5.8,36.8c0,1.2-1.9,2.3-3,3.5c-1.3-1.4-3.5-2.6-3.7-4.1 c-0.5-5-0.2-10-0.4-15c-0.6-15.1-9.4-26.2-22.9-29.2c-1.8-0.4-3.7-0.4-5.5-0.7c-4.4-0.5-5.9,1.5-5.9,5.8c0.2,11.5,0,23.1,0,34.6 c0,1.7,0.2,3.5-0.5,4.9c-0.6,1.3-2.1,2.9-3.3,2.9c-1,0-2.5-1.8-3-3.2c-0.5-1.5-0.2-3.3-0.2-5C434.6,320.9,434.6,306,434.6,291.1 C434.6,291.1,434.6,291.1,434.6,291.1z M476.7,274.8c-0.5-14.6-16.8-29.8-30.8-28c-1.5,0.2-3.9,2.6-3.9,4 c-0.3,10.8-0.3,21.5,0,32.3c0,1.5,2.1,3.8,3.7,4.3c6.4,2.2,13.1,3.6,19.5,5.8c3.1,1.1,5.1,0.7,6.2-2.3 C473.3,285.6,475,280.2,476.7,274.8z"></path> <path class="st0" d="M354.2,291c0-15.1,0.1-30.1-0.1-45.2c-0.1-4.9,1.7-6.4,6.5-6.5c15.8-0.4,29.3,4,37.2,18.6 c2.8,5.2,4.6,11.6,4.7,17.4c0.6,20.6,0.2,41.3,0.2,61.9c0,1.5,0.1,3.1-0.5,4.4c-0.6,1.1-2,2.5-3.1,2.5c-1,0-2.5-1.4-3-2.5 c-0.6-1.5-0.5-3.3-0.5-4.9c-0.1-11.5-0.2-23.1,0-34.6c0.1-4.9-1.8-6.6-6.6-6.5c-7.4,0.2-14.9,0.2-22.3,0c-4.1-0.1-5.6,1.6-5.6,5.7 c0.1,11.5,0,23.1,0,34.6c0,1.5,0.4,3.2-0.2,4.4c-0.8,1.6-2.4,2.7-3.7,4c-1-1.4-2.8-2.7-2.8-4.1c-0.3-8.5-0.2-17.1-0.2-25.7 C354.2,306.6,354.2,298.8,354.2,291C354.2,291,354.2,291,354.2,291z M361.3,267.1c0,5,0.2,10-0.1,15c-0.2,4.9,1.9,6.6,6.6,6.4 c5.2-0.3,10.4,0,15.6-0.1c12,0,12.4-0.4,12.1-12.6c-0.3-15.5-12.7-28.2-28.1-29.2c-4.6-0.3-6.4,1.4-6.2,6 C361.4,257.4,361.3,262.2,361.3,267.1z"></path> <path class="st0" d="M313.9,336.8c0.4-2.9,0.9-5.5,1-8c0.2-11.5,0.2-23,0.4-34.5c0-1.5,0.7-3.2,1.6-4.5c0.4-0.6,2.6-0.9,2.9-0.5 c1.1,1.3,2.4,3,2.4,4.6c0.3,7.1,0.1,14.1,0.2,21.2c0,7.8-0.2,15.6,0.1,23.4c0.2,4.8-1.9,6.3-6.3,6.2c-22.7-0.6-44.4-19-48.7-41.3 c-6.1-31.4,13.2-58.7,44.8-63.4c3.4-0.5,8.6-2.4,9.4,2.7c0.8,5.3-4.7,3.9-7.9,4.3c-22.3,2.7-39.3,21-40.5,43.6 c-1.1,20.9,14.2,40.7,35.2,45.8C310.1,336.6,311.8,336.6,313.9,336.8z"></path> <path class="st0" d="M250.4,146.1c-0.7-0.6-1.7-1.1-2.4-1.9c-5.7-7.4-13.9-9.5-22.5-10.3c-2-0.2-4.4,0.5-6-0.3 c-2.7-1.4-6.3-3.3-7.1-5.8c-0.6-2,1.6-6.3,3.7-7.6c13.3-8.3,28.1-11.5,43.6-9.6c6.6,0.8,13,2.7,19.4,4.6c1.7,0.5,3.9,3.2,3.7,4.6 c-0.2,1.9-2.4,4.7-4.1,4.9c-13,1.9-21.5,9.3-27,20.8C251.6,145.7,251.1,145.8,250.4,146.1z"></path> <path class="st0" d="M275.9,167.7c4.1-3.4,7.7-5.8,10.5-8.9c4.8-5.4,5.9-12.2,5.6-19.3c-0.2-3.8-0.3-8.7,4.1-9.2 c3.4-0.3,8.2,1.6,10.4,4.2c7,8,12.7,17,14.9,27.7c1.6,8-1.8,12.9-10.1,12.5c-5.7-0.2-11.2-2.1-16.9-3.3 C288.5,170.3,282.6,169.1,275.9,167.7z"></path> <path class="st0" d="M143.3,291.7c0-15.3-0.1-30.5,0.1-45.8c0-2.1,1.6-5.8,2.9-5.9c3.8-0.5,4,2.9,4,5.8c0,30.7,0,61.4,0,92.1 c0,0.6,0.2,1.3-0.1,1.6c-1.2,1.6-2.5,3.1-3.8,4.7c-1.1-1.7-3-3.3-3-5c-0.2-15.8-0.1-31.6-0.1-47.4 C143.2,291.7,143.3,291.7,143.3,291.7z"></path> <path class="st0" d="M217.3,161.3c-8.2,1.8-15.7,3.6-23.3,4.9c-7.9,1.3-10.8-2.4-7.9-9.9c1.5-4,2.8-8.4,5.4-11.5 c2.2-2.6,6.2-4.7,9.6-5.1c2.3-0.2,5.4,2.6,7.2,4.9c1.9,2.4,2.3,5.8,3.8,8.6C213.6,156,215.5,158.6,217.3,161.3z"></path> <path class="st0" d="M316.1,354.2c0,15,0,30,0,44.7c-2.9,0.6-5.7,1-8.5,1.7c-5.2,1.4-9.6,0.1-13-4c-3.6-4.3-3.8-9.2-1.6-14.1 c2.2-4.9,6.4-6.9,11.7-6.9c8.4,0.1,8.3,0.1,8.4-8.7c0-3.7,0.1-7.4,0.3-11.1c0-0.6,0.7-1.2,1-1.8 C315.1,354.1,315.6,354.1,316.1,354.2z M313.1,388.9c0.3-5.6-3-9.4-8.3-9.6c-5.3-0.2-9.1,3.4-9.3,8.8c-0.2,5.1,3.4,8.8,8.5,9 C309.3,397.2,312.8,394.1,313.1,388.9z"></path> <path class="st0" d="M484.2,388.1c0,6.6-5.7,13.1-11.9,13.2c-7.4,0.2-13.8-5.8-13.8-13.1c0-7.2,5.4-12.6,12.7-12.6 C478.5,375.6,484.1,381,484.2,388.1z M480.4,388c0.1-4.8-3.7-8.5-8.9-8.6c-5-0.2-9.4,4.1-9.4,8.9c0.1,4.5,4.8,9.2,9.4,9.2 C476.2,397.6,480.3,393.2,480.4,388z"></path> <path class="st0" d="M216.5,376.5c-0.3,6.3,0,12.7-1.2,18.8c-0.4,2.1-4.5,4.8-7,4.9c-3,0.1-7.7-1.3-9-3.6 c-3.5-6.2-2.7-13.3-1.3-20.1c0.6-0.1,1.1-0.2,1.7-0.3c0.3,1.7,0.9,3.5,1,5.2c0.2,3.3-0.1,6.7,0.4,10c0.5,3.5,2.8,5.7,6.6,5.4 c3.7-0.3,4.9-2.8,5-6.1c0.2-4.8,0.3-9.6,0.5-14.4C214.3,376.4,215.4,376.4,216.5,376.5z"></path> <path class="st0" d="M112.4,354.2c4.8,7-1,16.1,5.2,22.9c-6.8,6.1,0,15.5-5.4,22.6C111.1,384.5,111,369.3,112.4,354.2z"></path> <path class="st0" d="M31.4,380.5c-2.5,0.2-4.6,0.3-6.7,0.5c1.4,1.9,3,3.8,4.2,5.8c1.5,2.6,3.7,5.3,3.6,7.9 c-0.1,1.9-3.1,4.5-5.3,5.3c-4.1,1.5-6.8-1.3-7.1-6.9c1.3,0.9,2.1,1.8,3.1,2.1c1.6,0.4,3.2,0.3,4.8,0.3c-0.2-1.8,0.2-4.1-0.7-5.4 c-1.4-2.1-4.1-3.2-5.5-5.3c-1.9-2.9-2.1-6.6,1.5-8.1c2.1-0.8,5.2,0.7,7.7,1.4C31.4,378.3,31.3,379.8,31.4,380.5z"></path> <path class="st0" d="M389.8,400.9c0-9,0-16.7,0-25.1C393.3,380,393.4,395.3,389.8,400.9z"></path> </g> </svg> 