<?xml version="1.0" encoding="UTF-8"?> <!-- Generator: Adobe Illustrator 25.2.1, SVG Export Plug-In . SVG Version: 6.00 Build 0) --> <svg xmlns="http://www.w3.org/2000/svg" xmlns:xlink="http://www.w3.org/1999/xlink" version="1.1" id="Calque_1" x="0px" y="0px" viewBox="0 0 512 512" style="enable-background:new 0 0 512 512;" xml:space="preserve"> <style type="text/css"> .st0{fill:#FFFFFF;} </style> <image style="overflow:visible;" width="400" height="400" transform="matrix(0.75 0 0 0.75 8236.5264 8681.3389)"> </image> <image style="overflow:visible;" width="442" height="281" transform="matrix(0.75 0 0 0.75 8236.5264 8681.3389)"> </image> <g> <path class="st0" d="M193,361.2c20.2,11.6,36.9,21.8,54.3,30.7c4.3,2.2,11.9,2.3,16.1,0c35.3-19.7,70.1-40.3,105.3-60.2 c6.4-3.7,9.2-7.8,9.1-15.3c-0.4-40.5,0.1-80.9-0.5-121.4c-0.1-4.8-4-11.5-8.1-14c-35.1-21-70.5-41.4-106.1-61.3 c-3.9-2.2-11.1-2.3-14.9-0.2c-35.7,19.9-70.8,40.8-106.4,60.8c-7.4,4.2-8.7,9.4-8.6,16.9c0.2,61.3,0.1,122.7,0.1,184 c0,4.7,0,9.5,0,17.6c-21.4-12.4-40.8-23.4-59.7-35.2c-2.4-1.5-3.2-6.9-3.2-10.5c-0.2-64.8-0.3-129.6,0.2-194.5 c0-4.8,4.1-11.6,8.3-14.1c55.8-32.9,111.9-65.3,168.3-97.2c4.4-2.5,12.9-2.2,17.5,0.4c55.6,31.5,110.8,63.7,166.3,95.4 c7.4,4.2,10.2,9,10.1,17.6c-0.3,63.5-0.3,127,0,190.5c0,7.9-2.4,12.7-9.4,16.6c-55.9,31.9-111.4,64.4-167.4,96.1 c-4.5,2.5-12.7,2.3-17.5-0.1c-15.5-7.7-30.4-16.8-45.3-25.9c-3.3-2-7.7-6-7.8-9.1C192.7,407.6,193,386,193,361.2z"></path> <path class="st0" d="M317.2,221.3C299.6,231.6,284.7,241,269,249c-8.5,4.3-12.1,9.1-11.5,19c1.1,16.8,0.6,33.8,0.5,50.7 c0,2.4-1.3,4.7-2.6,9.1c-20.3-11.8-39.7-22.9-58.8-34.5c-2.3-1.4-3.6-5.9-3.7-9c-0.3-18.2-0.6-36.5,0.1-54.7 c0.2-4.3,3.6-9.9,7.2-12.2c15.4-9.8,31.3-18.7,47.3-27.4c3.3-1.8,8.8-3.3,11.7-1.8C277.9,198.3,296.1,209.1,317.2,221.3z"></path> </g> </svg> 