<?xml version="1.0" encoding="UTF-8"?> <!-- Generator: Adobe Illustrator 25.2.1, SVG Export Plug-In . SVG Version: 6.00 Build 0) --> <svg xmlns="http://www.w3.org/2000/svg" xmlns:xlink="http://www.w3.org/1999/xlink" version="1.1" id="Calque_1" x="0px" y="0px" viewBox="0 0 512 512" style="enable-background:new 0 0 512 512;" xml:space="preserve"> <style type="text/css"> .st0{fill:#FFFFFF;} </style> <image style="overflow:visible;" width="400" height="400" transform="matrix(0.75 0 0 0.75 8236.5264 8681.3389)"> </image> <image style="overflow:visible;" width="442" height="281" transform="matrix(0.75 0 0 0.75 8236.5264 8681.3389)"> </image> <g> <path class="st0" d="M140.2,207.4c5.8-20.1,11.3-38.2,16.1-56.4c1.9-7.2,5-10.8,12.8-9.3c2.6,0.5,5.3,0.1,8.7,0.1 c-8.1,25.4-15.6,49.9-23.8,74.1c-0.9,2.6-5.5,5.4-8.5,5.7c-17.9,1.6-17.9,1.4-23.6-16c-5.2-15.6-10.5-31.2-16.7-49.2 c-3.6,10.1-6.6,18-9.3,25.9c-3.4,10.1-6.9,20.2-9.9,30.4c-2,6.7-5.5,10.2-12.8,9.2c-3.2-0.4-6.7,0.5-9.7-0.3 c-2.7-0.7-6.7-2.5-7.4-4.7c-7.7-23.9-14.9-48-22.2-72c-0.2-0.7,0.1-1.6,0.2-2.4c0.5-0.3,1-0.7,1.5-0.7c18.6,0,13.8-2.8,19.3,14.2 c4.7,14.5,8.8,29.2,13.2,43.8c0.6,1.8,1.6,3.5,3.2,6.9c6.4-19.1,12.6-36.4,17.9-54.1c2.4-8.1,6.2-11.5,14.7-11.2 c8.2,0.3,14.2,0.8,16.9,10.7c4.3,16,10.5,31.5,15.9,47.2C137.3,201.7,138.4,203.6,140.2,207.4z"></path> <path class="st0" d="M146.5,298.8c0,9,0,17,0,25.6c-5.6,0-10.7,0-16.5,0c0-26.4,0-52.8,0-79.5c23.7,0,46.6-0.2,69.5,0.1 c9.8,0.1,16.1,4.8,17.8,14.3c1.4,7.9,2.4,16.7,0.1,24c-1.9,6.2-8.7,11-14.5,17.8c7.1,19.1,20.6,36.4,40,49 c18.8,12.1,39.6,18.1,62.2,17.8c-0.2,1-0.3,2-0.5,3c-8.3-0.6-16.7-0.6-24.9-2c-28.6-5.2-54.6-16.4-74.9-37.6 c-7.7-8.1-13-18.4-19.9-27.3c-1.8-2.3-5.1-4.8-7.8-4.9C167.3,298.4,157.5,298.8,146.5,298.8z M147.3,285.8c2,0,3.8,0,5.7,0 c12.8,0,25.6,0.1,38.3-0.1c6-0.1,9.6-2.9,9.3-9.5c-0.3-6.2,2.3-14.1-7.4-15.3c-8-1-16.2-1-24.3-1c-23.9-0.1-23.9,0-22.4,24 C146.6,284.1,146.8,284.4,147.3,285.8z"></path> <path class="st0" d="M379.6,235.6c5.3,4.5,10.7,9,15.4,13.1c27.4-7.7,54.9-1.6,82.7-4.3c0,5.9,0,10.9,0,16.8c-16.5,0-33,0-49.5,0 c-4.1,0-8.2-0.2-12.3,0c-6.7,0.4-11.4,3-11.3,10.8c0.1,8.4,0.2,16.9,0,25.3c-0.2,8.1,4.4,11.2,11.6,11.3 c12.5,0.2,25.1-0.3,37.6,0.2c6.6,0.2,9-2.2,8.2-8.6c-0.3-2.9-0.1-5.8-0.1-9.6c-12.2,0-23.8,0-35.9,0c0-4.5,0-8.2,0-12.5 c17.2,0,34.2,0,52.2,0c0,12.1,0.4,24.3-0.2,36.5c-0.3,6-5.3,10-11,10c-19.3,0.2-38.8,1.3-57.8-1.1c-19.4-2.5-22.6-8.2-18.9-28.4 C394.2,273.8,389.9,254.6,379.6,235.6z"></path> <path class="st0" d="M358.9,195.4c6.6,8.3,13.1,16.5,20.2,25.3c-7,1.7-13,2.4-18.3-2.7c-1.7-1.6-3.9-2.9-5.8-4.3 c-3.6-2.7-8.8-3.4-9.1-9.9c-0.1-2.3-5.3-5.9-8.4-6.2c-11-0.7-22.2-0.3-33.9-0.3c-0.2,4-0.4,7.4-0.6,10.8c-7.6,1.1-14.7,2.2-20.3,3 c0.9-4,2.6-8.2,2.7-12.5c0.3-16,0.3-32.1,0-48.2c-0.1-6.7,2.1-9,9-8.8c18.8,0.4,37.5,0.2,56.3,0.1c16.6-0.1,25.1,9.6,24.8,24.9 C375.3,184.1,373,189.7,358.9,195.4z M303.8,182.7c15,0,29.4,0.3,43.7-0.2c3.4-0.1,9.2-3,9.4-5c0.6-5.8-1.1-11.8-2.2-17.7 c-0.1-0.7-2.3-1.5-3.5-1.5c-15.7-0.1-31.3-0.1-47.4-0.1C303.8,166.5,303.8,174,303.8,182.7z"></path> <path class="st0" d="M406.4,197.4c0,8.6,0,16.1,0,24.1c-5.4,0-10.2,0-15.7,0c0-26.1,0-52.3,0-79.6c15.9,0,31.6-0.2,47.3,0.1 c8.9,0.1,17.9,0.2,26.6,1.7c9,1.5,13.6,8.3,13.7,17.3c0.1,5.2,0,10.4,0,15.5c0,13.6-7.2,20.8-21,20.9 C440.8,197.5,424.2,197.4,406.4,197.4z M406.8,182.7c15.6,0,30.2,0.2,44.8-0.1c7.3-0.1,10.2-4.9,10.4-11.7c0.2-5.7-1-12.1-7.4-12.5 c-15.8-0.8-31.8-0.3-47.8-0.3C406.8,166.8,406.8,174.3,406.8,182.7z"></path> <path class="st0" d="M269.6,295.3c1.6,3,3.1,5.9,4.5,8.7c3-8.4,5.9-16.6,8.8-24.8c0.7,0.2,1.3,0.4,2,0.7 c-1.3,5.5-2.6,10.9-4.3,17.7c10.9-12.2,20.6-22.9,30.2-33.7c0.9,0.6,1.7,1.3,2.6,1.9c-1.1,1.6-2.1,3.4-3.4,4.8 c-1.5,1.6-3.5,2.7-6.1,4.8c6.6,0.6,11.6,1.1,16.6,1.6c0.3,0.9,0.7,1.8,1,2.7c-3.9,3.2-7.7,6.4-12.6,10.5c1.7,2.8,3,7.2,5.7,8.3 c1.8,0.8,5.6-3.1,7.9-4.5c1.5,0.1,3.3,0.2,4.8,0.2c-0.3,1.3-0.8,3-1.5,6c1.1-0.7,0.9-0.5,0.6-0.4c-2.6,0.6-5.8,0.4-7.6,2 c-3.7,3.2-6.9,3.5-11,1.1c-1.2-0.7-3.3,0-4.9,0c0.2,1.4,0.8,2.8,0.6,4.2c-0.7,4.7-1.6,9.4-2.4,14.6c15.3-0.8,30.3-3.3,37.6-19.9 c5.1-11.5,3.6-22.9-5.4-32.2c-13.7-14.2-29.4-13.4-46.1-4.4c5.3-8.7,15.1-13.8,29.1-11c10,2,19,8.7,27.6,12.9 c-2.9-11-14.5-14.9-24.2-20.9c13.8,2.3,22.5,10.9,28.8,22.8c1.9,3.7-0.2,9.1,6.6,11.3c2.2,0.7,2.8,11.3,1.5,16.7 c-4.2,18-15.8,30.1-33.8,34.8c-17.9,4.6-33.9,0.2-45.7-14.2c-4.8-5.9-6.8-14.1-10.1-21.3C267.7,295.9,268.7,295.6,269.6,295.3z"></path> <path class="st0" d="M272.4,212.1c-14.4,9-27.5,17.3-39.7,24.9c0.4-0.4,1.8-2.2,3.3-3.9c4.7-5.3,9.7-10.3,13.9-15.9 c1.5-1.9,2.3-5.8,1.3-7.8c-1-2-4.5-3.7-7-3.7c-14.4-0.3-28.9-0.3-43.3,0c-2.3,0.1-6.1,2-6.7,3.8c-4.1,12.5-13,14.3-25.6,11.4 c3.5-6.6,6.8-13.1,10.3-19.6c9.1-16.8,18.3-33.5,27.4-50.3c6.4-11.7,23.5-13.9,30.2-2.9C249.4,169.4,260.8,191.2,272.4,212.1z M203.5,192.1c13.3,0,25.3,0,38.7,0c-6.4-12-12.4-23-19.3-35.9C216,168.9,210,180,203.5,192.1z"></path> <path class="st0" d="M312.6,240.8c-32.2,0.2-54.4,20.3-58.6,43.5c-4.5,25.2,10.4,49.6,34.1,57.7c26.9,9.2,58.8,1.2,74.6-33.7 c0.7,0.4,1.4,0.8,2,1.2c-6.4,10.7-12.8,21.3-19.3,32.3c13.1-3,22.4-13,33-20.8c-4.3,10.5-12,17.7-21.1,23.5 c-31.3,19.8-74.4,16.9-103.3-5.5c-18.7-14.6-25.6-41.3-16.1-61.2c1.1-2.3,2.7-4.4,4.4-7c-0.6,8.2-1.9,15.7-1.5,23 c0.4,7.2,2.5,14.4,5.9,21.6c-5.2-21-1.5-39.9,12-56.4C272.4,242.1,299.5,234.8,312.6,240.8z"></path> <path class="st0" d="M116.4,278.6c0.3,2.1,0.5,3.2,0.5,4.2c0.1,2.7,0,5.4,0,9.1c-22.2,0-44.1,0-66.7,0c0,11.1,0,21.4,0,32.3 c-5.7,0-10.6,0-16.5,0c0-19.9-0.6-40,0.2-60c0.5-11.1,11.4-19.1,24.3-19.3c17.7-0.3,35.4,0.1,53.1-0.2c6.3-0.1,7.1,2.9,7,8 c-0.2,4.8-0.3,8.5-6.9,8.3c-15.8-0.3-31.6-0.2-47.4,0c-11.2,0.1-14.6,4.4-13.4,17.5C72.6,278.6,94.5,278.6,116.4,278.6z"></path> <path class="st0" d="M230.2,276.9c5.5-27.1,21.9-45,47.4-54.4c25.3-9.3,49.6-5.7,72.6,8.6c0.3-0.7,0.6-1.4,0.9-2.2 c-2.6-2.3-5.2-4.7-7.8-7c12.6,4,21,13.5,26.2,24.5c9.3,19.4,11.5,38.4,2.5,52.3c-1.5-9.4-1.7-19.6-4.9-28.9 c-8.6-25.2-28.7-40.1-56.1-41.8c-34.2-2.1-59.1,13.7-76.8,42C232.9,272.4,231.6,274.7,230.2,276.9z"></path> </g> </svg> 