<?xml version="1.0" encoding="UTF-8"?> <!-- Generator: Adobe Illustrator 25.2.1, SVG Export Plug-In . SVG Version: 6.00 Build 0) --> <svg xmlns="http://www.w3.org/2000/svg" xmlns:xlink="http://www.w3.org/1999/xlink" version="1.1" id="Calque_1" x="0px" y="0px" viewBox="0 0 225 225" style="enable-background:new 0 0 225 225;" xml:space="preserve"> <style type="text/css"> .st0{fill:#FFFFFF;} </style> <g> <path class="st0" d="M3.9,77.4c27.4,15.7,52.8,30,77.9,44.8c30.3,17.8,30.1,17.9,60.3,0.1c23.4-13.8,47.1-27.2,70.7-40.7 c1.9-1.1,4-1.8,7-3.1c0.2,3.8,0.5,6.6,0.5,9.4c0,27.2,0.1,54.5,0,81.7c0,17.2-6.1,23.4-22.9,23.4c-57.1,0-114.2,0-171.3,0 c-15.7,0-22.1-6.3-22.2-22.1C3.8,140.5,3.9,110.1,3.9,77.4z"></path> <path class="st0" d="M112.3,32c28.5,0,57-0.1,85.6,0c17.9,0,29.3,17.4,21.9,33.6c-1,2.1-3.6,3.7-5.8,4.9 c-32.4,18.6-64.7,37.3-97.3,55.5c-2.6,1.5-7.6,0.9-10.4-0.7c-31.2-17.4-62.1-35.3-93.1-53c-9.8-5.5-12-12.1-8.9-25.7 c2.2-9.5,8.5-14.5,19.4-14.6C53.2,31.9,82.7,32,112.3,32z"></path> </g> </svg> 