<?xml version="1.0" encoding="UTF-8"?> <!-- Generator: Adobe Illustrator 25.2.1, SVG Export Plug-In . SVG Version: 6.00 Build 0) --> <svg xmlns="http://www.w3.org/2000/svg" xmlns:xlink="http://www.w3.org/1999/xlink" version="1.1" id="Calque_1" x="0px" y="0px" viewBox="0 0 225 225" style="enable-background:new 0 0 225 225;" xml:space="preserve"> <style type="text/css"> .st0{fill:#FFFFFF;} </style> <g> <path class="st0" d="M0.5,183.5c25,2.2,47.5-4,67.4-19.3c-9.7-0.5-18.6-3.5-26.4-9.3S28.3,141.5,25.1,132c7,1.2,13.7,1,20.3-0.8 c-10.6-2.5-19.5-7.9-26.3-16.3C12.3,106.4,9,96.6,9,85.4c6.5,3.5,13.3,5.5,20.7,5.7C16.6,81.6,9.6,68.9,9.4,52.8 c-0.1-8.2,2-15.9,6.2-23.1c24.9,29.4,56.5,45.5,95.1,48.2c-0.1-0.6-0.1-0.9-0.2-1.2c-2.1-10.9-0.8-21.4,4.5-31.1 c7.4-13.4,18.7-21.5,33.8-23.8c13.9-2.1,26.2,1.6,37,10.6c1,0.9,2,1.8,2.9,2.8c0.5,0.5,0.9,0.6,1.6,0.5c9.5-2,18.5-5.4,26.9-10.2 c0.4-0.2,0.8-0.5,1.4-0.8c-1.7,5.4-4.3,10.1-7.7,14.4s-7.4,7.8-11.9,10.8c4.4-0.4,8.7-1.2,12.9-2.4c4.2-1.3,8.3-2.7,12.5-4.1 c-0.2,0.3-0.3,0.6-0.5,0.9c-5.8,8.3-12.7,15.6-20.9,21.6c-0.9,0.7-1.2,1.3-1.2,2.5c0.6,16.3-2,32.1-7.3,47.5 c-5.7,16.5-14.3,31.5-25.7,44.7c-9.4,10.9-20.4,19.9-32.9,27c-12.7,7.2-26.3,11.9-40.6,14.4c-7.3,1.3-14.7,1.9-22.2,2 c-20.5,0.4-40-3.8-58.5-12.6c-4.5-2.2-8.9-4.8-13.3-7.2C1.1,183.9,0.8,183.7,0.5,183.5z"></path> </g> </svg> 